<svg width="108" height="108" viewBox="0 0 108 108" fill="none" xmlns="http://www.w3.org/2000/svg">
<circle cx="54" cy="54" r="54" fill="white" fill-opacity="0.07"/>
<path d="M27.4048 64.4421C27.4361 64.8346 27.7206 65.1601 28.1059 65.243L31.214 65.9137C31.3237 66.4435 31.4629 66.9661 31.6314 67.4763L29.2787 69.6079C28.987 69.8719 28.9032 70.2964 29.0727 70.6523C29.5025 71.5566 29.9815 72.3923 30.4961 73.1361C30.7191 73.459 31.1275 73.5981 31.503 73.4777L34.5238 72.5047C34.885 72.9096 35.2694 73.294 35.6743 73.6552L34.7013 76.676C34.5809 77.0497 34.7191 77.4591 35.0429 77.6829C35.7867 78.1975 36.6224 78.6765 37.5267 79.1064C37.8835 79.2758 38.3071 79.1911 38.5711 78.9003L40.7027 76.5476C41.2138 76.7152 41.7364 76.8553 42.2662 76.965L42.9369 80.0732C43.0198 80.4576 43.3453 80.7421 43.7369 80.7742C44.2114 80.8116 44.6867 80.8455 45.171 80.8455C45.6553 80.8455 46.1307 80.8116 46.6052 80.7742C46.9976 80.743 47.3231 80.4585 47.4061 80.0732L48.0767 76.965C48.6065 76.8553 49.1301 76.7161 49.6402 76.5476L51.7718 78.9003C52.0367 79.192 52.4612 79.2767 52.8162 79.1064C53.7205 78.6765 54.5562 78.1967 55.3001 77.6829C55.6238 77.4591 55.762 77.0497 55.6416 76.676L54.6686 73.6552C55.0735 73.294 55.4579 72.9096 55.8191 72.5056L58.8399 73.4786C59.2136 73.5999 59.623 73.4608 59.8468 73.137C60.3615 72.3932 60.8404 71.5575 61.2703 70.6532C61.4397 70.2973 61.3559 69.8728 61.0642 69.6088L58.7115 67.4772C58.8792 66.9662 59.0192 66.4435 59.1289 65.9137L62.2371 65.243C62.6215 65.1601 62.906 64.8346 62.9381 64.443C62.9746 63.9677 63.0085 63.4923 63.0085 63.008C63.0085 62.5237 62.9746 62.0483 62.9372 61.5739C62.906 61.1814 62.6215 60.8559 62.2362 60.773L59.128 60.1023C59.0183 59.5725 58.8792 59.049 58.7106 58.5388L61.0634 56.4072C61.355 56.1432 61.4388 55.7187 61.2694 55.3628C60.8395 54.4585 60.3597 53.6228 59.8459 52.879C59.6221 52.5552 59.2127 52.4161 58.839 52.5374L55.8182 53.5104C55.457 53.1055 55.0726 52.7211 54.6677 52.3599L55.6407 49.3391C55.7612 48.9654 55.6229 48.556 55.2992 48.3322C54.5553 47.8176 53.7196 47.3386 52.8153 46.9087C52.4585 46.7384 52.0349 46.8231 51.7709 47.1148L49.6393 49.4675C49.1283 49.2999 48.6056 49.1598 48.0759 49.0501L47.4052 45.942C47.3222 45.5576 46.9967 45.273 46.6052 45.2409C45.6553 45.1642 44.6858 45.166 43.736 45.2409C43.3436 45.2722 43.018 45.5567 42.9351 45.942L42.2644 49.0501C41.7346 49.1598 41.212 49.299 40.7018 49.4675L38.5702 47.1148C38.3062 46.8231 37.8826 46.7393 37.5259 46.9087C36.6215 47.3386 35.7858 47.8176 35.042 48.3322C34.7182 48.556 34.58 48.9654 34.7004 49.3391L35.6734 52.3599C35.2685 52.7211 34.8841 53.1055 34.5229 53.5104L31.503 52.5374C31.1284 52.4161 30.7191 52.5552 30.4961 52.879C29.9815 53.6228 29.5025 54.4585 29.0727 55.3628C28.9032 55.7187 28.987 56.1432 29.2787 56.4072L31.6314 58.5388C31.4638 59.0499 31.3237 59.5725 31.214 60.1023L28.1059 60.773C27.7215 60.8559 27.437 61.1814 27.4048 61.573C27.3674 62.0483 27.3335 62.5237 27.3335 63.008C27.3335 63.4923 27.3674 63.9677 27.4048 64.4421ZM29.136 62.3757L32.1701 61.7201C32.5287 61.6425 32.8034 61.3536 32.8622 60.9915C32.996 60.1692 33.2119 59.362 33.5035 58.5914C33.6337 58.249 33.5401 57.861 33.268 57.6148L30.9768 55.5385C31.1766 55.1559 31.3853 54.7894 31.6011 54.4424L34.5407 55.3896C34.8886 55.5011 35.2721 55.3896 35.5049 55.106C36.0311 54.462 36.6251 53.8689 37.269 53.3419C37.5526 53.11 37.6659 52.7273 37.5526 52.3777L36.6054 49.4381C36.9524 49.2214 37.318 49.0127 37.7016 48.8138L39.7778 51.1059C40.0249 51.3779 40.4137 51.4716 40.7553 51.3414C41.5241 51.0497 42.3313 50.8339 43.1545 50.7001C43.5166 50.6413 43.8056 50.3666 43.8831 50.008L44.5378 46.9739C44.9579 46.9516 45.3851 46.9507 45.8034 46.9739L46.4589 50.008C46.5365 50.3666 46.8254 50.6413 47.1875 50.7001C48.0099 50.8339 48.817 51.0497 49.5876 51.3414C49.9283 51.4716 50.3171 51.3788 50.5642 51.1059L52.6405 48.8147C53.0231 49.0145 53.3897 49.2232 53.7366 49.439L52.7894 52.3786C52.677 52.7282 52.7894 53.11 53.073 53.3427C53.717 53.8689 54.3101 54.4629 54.8372 55.1069C55.07 55.3914 55.4526 55.5047 55.8013 55.3905L58.7409 54.4433C58.9576 54.7903 59.1663 55.1559 59.3652 55.5385L57.0731 57.6148C56.8011 57.861 56.7074 58.249 56.8376 58.5923C57.1293 59.3611 57.3451 60.1683 57.4789 60.9915C57.5378 61.3536 57.8125 61.6425 58.171 61.7201L61.2052 62.3748C61.2168 62.5844 61.2248 62.7957 61.2248 63.008C61.2248 63.2203 61.2177 63.4316 61.2061 63.6403L58.1719 64.2959C57.8134 64.3735 57.5387 64.6624 57.4798 65.0245C57.346 65.8468 57.1302 66.654 56.8385 67.4246C56.7083 67.7671 56.802 68.155 57.074 68.4012L59.3652 70.4775C59.1654 70.8601 58.9567 71.2266 58.7409 71.5736L55.8013 70.6264C55.4508 70.5122 55.07 70.6255 54.8372 70.91C54.3119 71.5522 53.7179 72.1462 53.073 72.6742C52.7894 72.906 52.677 73.2887 52.7894 73.6374L53.7366 76.577C53.3897 76.7937 53.024 77.0024 52.6414 77.2013L50.5651 74.9092C50.3189 74.6372 49.931 74.5453 49.5876 74.6737C48.8188 74.9654 48.0116 75.1812 47.1884 75.315C46.8263 75.3739 46.5374 75.6486 46.4598 76.0071L45.8051 79.0413C45.3851 79.0636 44.9579 79.0644 44.5396 79.0413L43.884 76.0071C43.8064 75.6486 43.5175 75.3739 43.1554 75.315C42.3331 75.1812 41.5259 74.9654 40.7553 74.6737C40.4137 74.5435 40.0249 74.6363 39.7787 74.9092L37.7024 77.2004C37.3198 77.0006 36.9533 76.792 36.6063 76.5761L37.5535 73.6365C37.6659 73.2869 37.5535 72.9052 37.2699 72.6724C36.626 72.1462 36.0329 71.5522 35.5058 70.9082C35.273 70.6237 34.8895 70.5114 34.5416 70.6246L31.602 71.5718C31.3853 71.2249 31.1766 70.8592 30.9777 70.4757L33.2698 68.3994C33.5418 68.1532 33.6355 67.7653 33.5053 67.4219C33.2136 66.6531 32.9978 65.846 32.864 65.0228C32.8052 64.6607 32.5305 64.3717 32.1719 64.2941L29.136 63.6412C29.1253 63.4316 29.1172 63.2203 29.1172 63.008C29.1172 62.7957 29.1244 62.5844 29.136 62.3757Z" fill="#C7B484"/>
<path d="M73.9055 40.0287C74.2408 39.9234 74.4834 39.63 74.5236 39.2804C74.5771 38.83 74.602 38.4224 74.602 38.0353C74.602 37.6482 74.5771 37.2407 74.5245 36.7903C74.4843 36.4406 74.2417 36.1472 73.9064 36.042L71.4332 35.2652C71.3592 35.0627 71.2771 34.8638 71.1871 34.6694L72.3857 32.3728C72.5481 32.0615 72.5124 31.6834 72.2948 31.4069C71.7784 30.754 71.1844 30.1601 70.5297 29.6419C70.2533 29.4234 69.8751 29.3886 69.5638 29.55L67.2655 30.7487C67.071 30.6595 66.8722 30.5775 66.6697 30.5034L65.8929 28.0303C65.7876 27.6949 65.4942 27.4523 65.1446 27.4122C64.242 27.3069 63.5562 27.3069 62.6536 27.4122C62.304 27.4523 62.0105 27.6949 61.9053 28.0303L61.1285 30.5034C60.926 30.5775 60.7271 30.6595 60.5327 30.7496L58.2361 29.5509C57.9249 29.3895 57.5476 29.4243 57.2702 29.6419C56.6174 30.1583 56.0234 30.7523 55.5052 31.4069C55.2867 31.6834 55.251 32.0606 55.4133 32.3728L56.6111 34.6694C56.5219 34.8638 56.4399 35.0627 56.3659 35.2652L53.8927 36.042C53.5573 36.1472 53.3147 36.4406 53.2746 36.7903C53.222 37.2407 53.197 37.6482 53.197 38.0353C53.197 38.4224 53.222 38.83 53.2746 39.2804C53.3147 39.63 53.5573 39.9234 53.8927 40.0287L56.3659 40.8055C56.4399 41.0079 56.5219 41.2068 56.612 41.4013L55.4133 43.6978C55.251 44.0091 55.2867 44.3873 55.5043 44.6637C56.0207 45.3166 56.6147 45.9106 57.2693 46.4288C57.5449 46.6473 57.924 46.6821 58.2352 46.5206L60.5318 45.3228C60.7262 45.412 60.9251 45.4941 61.1276 45.5681L61.9044 48.0413C62.0096 48.3766 62.3031 48.6192 62.6527 48.6593C63.1049 48.7129 63.5125 48.7378 63.8995 48.7378C64.2866 48.7378 64.6942 48.7129 65.1446 48.6602C65.4942 48.6201 65.7876 48.3775 65.8929 48.0422L66.6697 45.569C66.8722 45.495 67.071 45.4129 67.2655 45.3228L69.5621 46.5215C69.8733 46.6838 70.2515 46.6491 70.528 46.4305C71.1808 45.9142 71.7748 45.3202 72.293 44.6655C72.5115 44.389 72.5472 44.0118 72.3848 43.6996L71.1862 41.403C71.2762 41.2086 71.3583 41.0097 71.4323 40.8073L73.9055 40.0287ZM70.4629 39.2402C70.181 39.3294 69.9616 39.5515 69.876 39.8351C69.7547 40.2383 69.5942 40.6262 69.3997 40.9892C69.2597 41.2496 69.257 41.5627 69.3944 41.824L70.5262 43.9931C70.3148 44.2276 70.0909 44.4515 69.8573 44.662L67.6882 43.5302C67.426 43.3928 67.113 43.3964 66.8534 43.5355C66.4904 43.7299 66.1025 43.8905 65.6993 44.0118C65.4166 44.0965 65.1936 44.3168 65.1045 44.5986L64.3696 46.9389C64.044 46.9585 63.7559 46.9585 63.4295 46.9389L62.6946 44.5986C62.6054 44.3168 62.3833 44.0974 62.0997 44.0118C61.6957 43.8905 61.3077 43.7299 60.9465 43.5355C60.6861 43.3955 60.3731 43.3928 60.1108 43.5302L57.9418 44.662C57.7072 44.4506 57.4834 44.2267 57.2729 43.9931L58.4047 41.824C58.5411 41.5627 58.5394 41.2487 58.3993 40.9892C58.2049 40.6262 58.0444 40.2383 57.9231 39.8351C57.8383 39.5524 57.6181 39.3294 57.3362 39.2402L54.9959 38.5053C54.9852 38.3421 54.9808 38.186 54.9808 38.0353C54.9808 37.8846 54.9852 37.7285 54.9959 37.5653L57.3362 36.8304C57.6181 36.7412 57.8375 36.5191 57.9231 36.2355C58.0444 35.8315 58.2049 35.4435 58.3993 35.0823C58.5394 34.8219 58.542 34.5088 58.4047 34.2466L57.2729 32.0776C57.4843 31.843 57.7081 31.6192 57.9418 31.4087L60.1108 32.5405C60.3722 32.6769 60.6861 32.6743 60.9456 32.5351C61.3086 32.3407 61.6966 32.1802 62.0997 32.0589C62.3825 31.9741 62.6054 31.7538 62.6946 31.472L63.4295 29.1317C63.755 29.1121 64.0431 29.1121 64.3696 29.1317L65.1045 31.472C65.1936 31.7538 65.4157 31.9732 65.6993 32.0589C66.1034 32.1802 66.4913 32.3407 66.8525 32.5351C67.113 32.6751 67.426 32.6778 67.6882 32.5405L69.8573 31.4087C70.0918 31.6201 70.3157 31.8439 70.5262 32.0776L69.3944 34.2466C69.2579 34.5079 69.2597 34.8219 69.3997 35.0814C69.5942 35.4444 69.7547 35.8324 69.876 36.2355C69.9607 36.5182 70.181 36.7412 70.4629 36.8304L72.8031 37.5653C72.8138 37.7285 72.8183 37.8846 72.8183 38.0353C72.8183 38.186 72.8138 38.3421 72.8031 38.5053L70.4629 39.2402Z" fill="#C7B484"/>
<path d="M80.1876 56.7326L78.6554 56.1886C78.568 55.9397 78.4681 55.6962 78.3548 55.4599L79.0514 53.9928C79.1967 53.6877 79.1566 53.3274 78.9479 53.0616C78.502 52.4917 77.9865 51.9753 77.4148 51.5276C77.1481 51.3189 76.786 51.2797 76.4828 51.4242L75.0147 52.1207C74.7793 52.0083 74.5358 51.9076 74.287 51.821L73.742 50.2888C73.6288 49.9704 73.3443 49.743 73.0089 49.7019C72.2142 49.6065 71.639 49.6065 70.8443 49.7019C70.509 49.7421 70.2245 49.9695 70.1112 50.2888L69.5672 51.821C69.3183 51.9084 69.0748 52.0083 68.8385 52.1216L67.3714 51.425C67.0681 51.2806 66.7069 51.3207 66.4402 51.5285C65.8703 51.9744 65.3539 52.4899 64.9062 53.0616C64.6984 53.3274 64.6583 53.6886 64.8028 53.9937L65.4993 55.4617C65.3869 55.6971 65.2862 55.9406 65.1996 56.1895L63.6674 56.7344C63.349 56.8477 63.1216 57.1322 63.0805 57.4675C63.0315 57.8626 63.0083 58.2167 63.0083 58.5485C63.0083 58.8802 63.0315 59.2334 63.0797 59.6303C63.1198 59.9657 63.3472 60.2502 63.6665 60.3634L65.1987 60.9075C65.2862 61.1563 65.386 61.3998 65.4993 61.6361L64.8028 63.1033C64.6574 63.4083 64.6975 63.7686 64.9062 64.0344C65.3521 64.6043 65.8677 65.1207 66.4393 65.5684C66.7051 65.7762 67.0672 65.8164 67.3714 65.6719L68.8394 64.9753C69.0748 65.0877 69.3183 65.1885 69.5672 65.275L70.1121 66.8072C70.2254 67.1256 70.5099 67.3531 70.8452 67.3941C71.2421 67.444 71.5953 67.4672 71.9271 67.4672C72.2588 67.4672 72.612 67.444 73.0089 67.3959C73.3443 67.3557 73.6288 67.1283 73.742 66.809L74.2861 65.2768C74.5349 65.1894 74.7784 65.0895 75.0147 64.9762L76.4819 65.6728C76.786 65.8181 77.1481 65.7789 77.413 65.5693C77.9829 65.1234 78.4993 64.6079 78.947 64.0362C79.1548 63.7704 79.195 63.4092 79.0505 63.1042L78.3539 61.6361C78.4663 61.4007 78.5671 61.1572 78.6536 60.9084L80.1858 60.3634C80.5042 60.2502 80.7317 59.9657 80.7727 59.6303C80.8226 59.2334 80.8458 58.8802 80.8458 58.5485C80.8458 58.2167 80.8226 57.8635 80.7745 57.4666C80.7343 57.1304 80.5069 56.8468 80.1876 56.7326ZM79.0532 58.874L77.6395 59.3761C77.3657 59.4733 77.1561 59.6981 77.0785 59.9781C76.9617 60.4018 76.7949 60.8058 76.5835 61.1795C76.4408 61.4319 76.4301 61.7387 76.5541 62.0009L77.1945 63.3503C77.0464 63.5126 76.8912 63.6678 76.7298 63.815L75.3804 63.1746C75.12 63.0507 74.8123 63.0614 74.559 63.2041C74.1844 63.4163 73.7804 63.5822 73.3585 63.699C73.0785 63.7766 72.8537 63.9862 72.7556 64.26L72.2535 65.6737C72.0377 65.6853 71.8183 65.6853 71.6024 65.6737L71.1003 64.26C71.0031 63.9862 70.7783 63.7766 70.4983 63.699C70.0746 63.5822 69.6706 63.4154 69.2969 63.2041C69.0445 63.0622 68.7386 63.0515 68.4755 63.1746L67.1261 63.815C66.9638 63.6669 66.8086 63.5118 66.6614 63.3503L67.3018 62.0009C67.4267 61.7387 67.4151 61.4319 67.2724 61.1795C67.0601 60.8049 66.8942 60.4009 66.7774 59.979C66.6998 59.699 66.4902 59.4742 66.2164 59.3761L64.8028 58.874C64.7956 58.7661 64.7921 58.6582 64.7921 58.5485C64.7921 58.4388 64.7956 58.33 64.801 58.2229L66.2146 57.7199C66.4884 57.6227 66.698 57.3979 66.7747 57.1179C66.8924 56.6934 67.0592 56.2902 67.2706 55.9165C67.4133 55.6641 67.424 55.3573 67.3 55.0951L66.6596 53.7457C66.8077 53.5834 66.9629 53.4282 67.1243 53.281L68.4737 53.9214C68.7359 54.0463 69.0427 54.0356 69.2951 53.892C69.6697 53.6797 70.0737 53.5138 70.4956 53.397C70.7756 53.3194 71.0004 53.1098 71.0985 52.836L71.6006 51.4224C71.8165 51.4108 72.0359 51.4108 72.2517 51.4224L72.7538 52.836C72.851 53.1098 73.0758 53.3194 73.3558 53.397C73.7795 53.5138 74.1835 53.6806 74.5572 53.892C74.8105 54.0356 75.1164 54.0463 75.3786 53.9214L76.728 53.281C76.8904 53.4291 77.0455 53.5843 77.1927 53.7457L76.5523 55.0951C76.4275 55.3573 76.4391 55.6641 76.5818 55.9165C76.794 56.2911 76.9599 56.6951 77.0768 57.117C77.1543 57.3971 77.3639 57.6218 77.6377 57.7199L79.0514 58.222C79.0585 58.3308 79.0621 58.4388 79.0621 58.5485C79.0621 58.6582 79.0585 58.7661 79.0532 58.874Z" fill="#C7B484"/>
<path d="M45.1709 72.8183C50.5801 72.8183 54.9815 68.4169 54.9815 63.0077C54.9815 57.5984 50.5801 53.197 45.1709 53.197C39.7616 53.197 35.3602 57.5984 35.3602 63.0077C35.3602 68.4169 39.7616 72.8183 45.1709 72.8183ZM45.1709 54.9808C49.5964 54.9808 53.1978 58.5822 53.1978 63.0077C53.1978 67.4331 49.5964 71.0345 45.1709 71.0345C40.7454 71.0345 37.144 67.4331 37.144 63.0077C37.144 58.5822 40.7454 54.9808 45.1709 54.9808Z" fill="#C7B484"/>
<path d="M27.3531 48.1662L28.7231 49.3087C32.807 44.4114 38.8013 41.6028 45.171 41.6028C45.625 41.6028 46.0781 41.6287 46.5312 41.6573L45.4324 42.756L46.6935 44.0172L49.3691 41.3415C49.7178 40.9928 49.7178 40.4291 49.3691 40.0804L46.6935 37.4048L45.4324 38.6659L46.6444 39.878C46.1539 39.8467 45.6625 39.8191 45.171 39.8191C38.2715 39.8191 31.7769 42.8613 27.3531 48.1662Z" fill="#C7B484"/>
<path d="M63.9003 33.5759C61.4414 33.5759 59.4409 35.5764 59.4409 38.0353C59.4409 40.4942 61.4414 42.4947 63.9003 42.4947C66.3592 42.4947 68.3597 40.4942 68.3597 38.0353C68.3597 35.5764 66.3592 33.5759 63.9003 33.5759ZM63.9003 40.7109C62.4251 40.7109 61.2247 39.5105 61.2247 38.0353C61.2247 36.5601 62.4251 35.3597 63.9003 35.3597C65.3755 35.3597 66.5759 36.5601 66.5759 38.0353C66.5759 39.5105 65.3755 40.7109 63.9003 40.7109Z" fill="#C7B484"/>
<path d="M71.927 54.981C69.9595 54.981 68.3595 56.581 68.3595 58.5485C68.3595 60.5159 69.9595 62.116 71.927 62.116C73.8945 62.116 75.4945 60.5159 75.4945 58.5485C75.4945 56.581 73.8945 54.981 71.927 54.981ZM71.927 60.3322C70.9433 60.3322 70.1432 59.5322 70.1432 58.5485C70.1432 57.5647 70.9433 56.7647 71.927 56.7647C72.9107 56.7647 73.7108 57.5647 73.7108 58.5485C73.7108 59.5322 72.9107 60.3322 71.927 60.3322Z" fill="#C7B484"/>
<path d="M80.1284 30.0262L75.669 29.1344C75.1838 29.0363 74.7156 29.3511 74.6193 29.8336L73.7274 34.293L75.4764 34.6435L75.9571 32.2426C76.8213 34.0406 77.278 36.0223 77.278 38.0353C77.278 41.1105 76.263 44.0019 74.3437 46.3966L75.7359 47.5124C77.8809 44.8358 79.0617 41.4708 79.0617 38.0353C79.0617 35.6995 78.5221 33.3966 77.4956 31.3186L79.7788 31.7752L80.1284 30.0262Z" fill="#C7B484"/>
</svg>
