<svg width="108" height="108" viewBox="0 0 108 108" fill="none" xmlns="http://www.w3.org/2000/svg">
<circle cx="54" cy="54" r="54" fill="white" fill-opacity="0.07"/>
<path d="M61.2242 50.522H65.6835C65.9201 50.522 66.1469 50.4281 66.3142 50.2608C66.4815 50.0936 66.5754 49.8667 66.5754 49.6302C66.5754 49.3936 66.4815 49.1668 66.3142 48.9995C66.1469 48.8322 65.9201 48.7383 65.6835 48.7383H61.2242C60.9876 48.7383 60.7608 48.8322 60.5935 48.9995C60.4262 49.1668 60.3323 49.3936 60.3323 49.6302C60.3323 49.8667 60.4262 50.0936 60.5935 50.2608C60.7608 50.4281 60.9876 50.522 61.2242 50.522Z" fill="#C7B484"/>
<path d="M79.9541 48.7381C79.7175 48.7381 79.4907 48.8321 79.3234 48.9993C79.1562 49.1666 79.0622 49.3935 79.0622 49.63V79.062H33.5764C32.6944 79.062 31.8322 78.8004 31.0989 78.3104C30.3656 77.8204 29.794 77.124 29.4565 76.3091C29.1189 75.4943 29.0306 74.5976 29.2027 73.7326C29.3748 72.8676 29.7995 72.073 30.4231 71.4493C31.0468 70.8257 31.8414 70.401 32.7064 70.2289C33.5715 70.0568 34.4681 70.1451 35.2829 70.4827C36.0978 70.8202 36.7942 71.3917 37.2842 72.1251C37.7743 72.8584 38.0358 73.7206 38.0358 74.6026C38.0358 74.8391 38.1298 75.066 38.297 75.2332C38.4643 75.4005 38.6911 75.4945 38.9277 75.4945C39.1642 75.4945 39.3911 75.4005 39.5583 75.2332C39.7256 75.066 39.8195 74.8391 39.8195 74.6026V50.5219H42.4952C42.7317 50.5219 42.9586 50.4279 43.1258 50.2607C43.2931 50.0934 43.3871 49.8665 43.3871 49.63C43.3871 49.3935 43.2931 49.1666 43.1258 48.9993C42.9586 48.8321 42.7317 48.7381 42.4952 48.7381H39.8195V46.0625C39.8195 44.4067 39.1618 42.8187 37.991 41.6479C36.8202 40.4771 35.2322 39.8193 33.5764 39.8193C31.9206 39.8193 30.3326 40.4771 29.1618 41.6479C27.991 42.8187 27.3333 44.4067 27.3333 46.0625V74.6026C27.3351 76.2578 27.9935 77.8447 29.1639 79.0151C30.3343 80.1855 31.9212 80.8438 33.5764 80.8457H79.9541C80.1906 80.8457 80.4175 80.7518 80.5847 80.5845C80.752 80.4173 80.846 80.1904 80.846 79.9539V49.63C80.846 49.3935 80.752 49.1666 80.5847 48.9993C80.4175 48.8321 80.1906 48.7381 79.9541 48.7381ZM29.117 46.0625C29.117 44.8798 29.5868 43.7455 30.4231 42.9092C31.2594 42.0729 32.3937 41.6031 33.5764 41.6031C34.7591 41.6031 35.8934 42.0729 36.7297 42.9092C37.566 43.7455 38.0358 44.8798 38.0358 46.0625V70.2324C37.4551 69.6381 36.7614 69.1659 35.9956 68.8435C35.2298 68.5212 34.4073 68.3551 33.5764 68.3551C32.7455 68.3551 31.923 68.5212 31.1572 68.8435C30.3914 69.1659 29.6977 69.6381 29.117 70.2324V46.0625Z" fill="#C7B484"/>
<path d="M68.4227 59.7727L69.8497 63.3402L71.9902 68.6914C72.0563 68.8572 72.1705 68.9994 72.3182 69.0996C72.4659 69.1997 72.6403 69.2533 72.8188 69.2533C72.9972 69.2533 73.1716 69.1997 73.3193 69.0996C73.467 68.9994 73.5813 68.8572 73.6473 68.6914L75.7878 63.3402L77.2148 59.7727C77.2506 59.6774 77.2696 59.5766 77.271 59.4748C77.271 59.4632 77.2782 59.4534 77.2782 59.4409V44.2789C77.2782 44.0424 77.1842 43.8155 77.0169 43.6483C76.8497 43.481 76.6228 43.3871 76.3863 43.3871C76.1497 43.3871 75.9229 43.481 75.7556 43.6483C75.5884 43.8155 75.4944 44.0424 75.4944 44.2789V58.549H73.7106V38.0358H75.4944V40.7114C75.4944 40.948 75.5884 41.1748 75.7556 41.3421C75.9229 41.5093 76.1497 41.6033 76.3863 41.6033C76.6228 41.6033 76.8497 41.5093 77.0169 41.3421C77.1842 41.1748 77.2782 40.948 77.2782 40.7114V31.7926C77.2782 30.6099 76.8083 29.4757 75.972 28.6394C75.1357 27.8031 74.0015 27.3333 72.8188 27.3333C71.6361 27.3333 70.5018 27.8031 69.6655 28.6394C68.8292 29.4757 68.3594 30.6099 68.3594 31.7926V59.4409C68.3594 59.4534 68.3656 59.4632 68.3665 59.4757C68.368 59.5772 68.387 59.6776 68.4227 59.7727ZM71.9956 63.9003H73.642L72.8188 65.9587L71.9956 63.9003ZM74.3555 62.1165H71.2821L70.5686 60.3328H75.069L74.3555 62.1165ZM71.9269 58.549H70.1431V38.0358H71.9269V58.549ZM70.1431 36.252V34.4683H75.4944V36.252H70.1431ZM70.1431 31.7926C70.1431 31.083 70.425 30.4025 70.9268 29.9007C71.4286 29.3989 72.1091 29.117 72.8188 29.117C73.5284 29.117 74.2089 29.3989 74.7107 29.9007C75.2125 30.4025 75.4944 31.083 75.4944 31.7926V32.6845H70.1431V31.7926Z" fill="#C7B484"/>
<path d="M46.9549 44.9033V45.3323C46.4336 45.5139 45.9817 45.8533 45.6619 46.3033C45.3421 46.7534 45.1703 47.2917 45.1703 47.8438C45.1703 48.3959 45.3421 48.9343 45.6619 49.3843C45.9817 49.8344 46.4336 50.1737 46.9549 50.3554V50.5221C46.9566 51.6501 47.3142 52.7488 47.9769 53.6617C48.6396 54.5745 49.5735 55.2549 50.6455 55.6058C49.6929 56.5632 48.4965 57.2418 47.1859 57.568L45.8258 57.9087C44.7818 58.1666 43.8685 58.7982 43.2586 59.6839C42.6488 60.5695 42.3845 61.648 42.5159 62.7153C42.6472 63.7826 43.1651 64.7648 43.9715 65.4762C44.778 66.1876 45.8171 66.5788 46.8925 66.5759H48.7387C48.9752 66.5759 49.2021 66.482 49.3693 66.3147C49.5366 66.1475 49.6305 65.9206 49.6305 65.6841C49.6305 65.4475 49.5366 65.2207 49.3693 65.0534C49.2021 64.8862 48.9752 64.7922 48.7387 64.7922H46.8925C46.2549 64.7916 45.6394 64.5579 45.1621 64.1353C44.6847 63.7126 44.3782 63.13 44.3004 62.4971C44.2226 61.8643 44.3788 61.2248 44.7395 60.6991C45.1003 60.1733 45.6408 59.7976 46.2592 59.6425L47.6193 59.3027C49.6858 58.7843 51.5078 57.5639 52.7735 55.8502C54.1059 55.7324 55.346 55.1203 56.2498 54.1342C57.1536 53.1482 57.6557 51.8597 57.6574 50.5221V50.358C58.1788 50.1764 58.6307 49.837 58.9505 49.387C59.2702 48.937 59.442 48.3986 59.442 47.8465C59.442 47.2944 59.2702 46.756 58.9505 46.306C58.6307 45.856 58.1788 45.5166 57.6574 45.335V44.9033C59.042 43.6684 59.9545 41.9908 60.2387 40.1574C60.5229 38.324 60.1612 36.4489 59.2156 34.8527C59.0953 34.6489 58.899 34.5013 58.6698 34.4422C58.4407 34.3832 58.1975 34.4176 57.9937 34.5379C57.7899 34.6582 57.6422 34.8545 57.5832 35.0836C57.5242 35.3128 57.5586 35.556 57.6788 35.7598C58.4449 37.051 58.7179 38.5759 58.4475 40.0528C58.177 41.5296 57.3813 42.8587 56.2072 43.7947C56.1031 43.8783 56.0191 43.9842 55.9614 44.1046C55.9036 44.225 55.8737 44.3568 55.8737 44.4904V45.1709H55.0862L55.8683 38.1339C55.8848 37.9852 55.8636 37.8347 55.8067 37.6963C55.7498 37.5579 55.659 37.4361 55.5426 37.342C55.4262 37.2479 55.288 37.1846 55.1408 37.158C54.9935 37.1313 54.8419 37.1421 54.7 37.1894L52.3062 37.9877L49.9124 37.1894C49.7704 37.1421 49.6188 37.1313 49.4716 37.158C49.3243 37.1846 49.1861 37.2479 49.0698 37.342C48.9534 37.4361 48.8625 37.5579 48.8056 37.6963C48.7487 37.8347 48.7275 37.9852 48.744 38.1339L49.5262 45.1709H48.7387V44.493C48.7387 44.3595 48.7087 44.2277 48.651 44.1073C48.5933 43.9869 48.5092 43.881 48.4051 43.7974C47.1697 42.8128 46.3539 41.3962 46.1225 39.8335C45.891 38.2708 46.2612 36.6786 47.1583 35.3782C48.0553 34.0779 49.4123 33.1664 50.9554 32.8279C52.4984 32.4893 54.1124 32.7489 55.4714 33.5541C55.6752 33.6744 55.9184 33.7088 56.1476 33.6498C56.3767 33.5907 56.573 33.4431 56.6933 33.2393C56.8136 33.0355 56.848 32.7923 56.789 32.5632C56.7299 32.334 56.5823 32.1377 56.3785 32.0174C54.6639 31.008 52.6353 30.6718 50.6867 31.0742C48.7381 31.4766 47.0086 32.5888 45.834 34.1949C44.6595 35.8009 44.1238 37.7862 44.3309 39.7651C44.5381 41.744 45.4733 43.5753 46.9549 44.9033ZM52.3062 54.0896C51.36 54.0896 50.4526 53.7138 49.7836 53.0447C49.1145 52.3757 48.7387 51.4683 48.7387 50.5221H55.8737C55.8737 51.4683 55.4978 52.3757 54.8288 53.0447C54.1597 53.7138 53.2523 54.0896 52.3062 54.0896ZM50.6714 39.3228L52.0243 39.7741C52.2073 39.835 52.4051 39.835 52.588 39.7741L53.941 39.3228L53.2917 45.1709H51.3251L50.6714 39.3228ZM50.5224 46.9546H56.7656C57.0021 46.9546 57.229 47.0486 57.3962 47.2158C57.5635 47.3831 57.6574 47.61 57.6574 47.8465C57.6574 48.083 57.5635 48.3099 57.3962 48.4772C57.229 48.6444 57.0021 48.7384 56.7656 48.7384H47.8468C47.6102 48.7384 47.3834 48.6444 47.2161 48.4772C47.0489 48.3099 46.9549 48.083 46.9549 47.8465C46.9549 47.61 47.0489 47.3831 47.2161 47.2158C47.3834 47.0486 47.6102 46.9546 47.8468 46.9546H50.5224Z" fill="#C7B484"/>
<path d="M41.6035 39.8194C42.0961 39.8194 42.4954 39.4201 42.4954 38.9275C42.4954 38.435 42.0961 38.0356 41.6035 38.0356C41.111 38.0356 40.7117 38.435 40.7117 38.9275C40.7117 39.4201 41.111 39.8194 41.6035 39.8194Z" fill="#C7B484"/>
<path d="M63.0071 39.8194C63.4997 39.8194 63.899 39.4201 63.899 38.9275C63.899 38.435 63.4997 38.0356 63.0071 38.0356C62.5145 38.0356 62.1152 38.435 62.1152 38.9275C62.1152 39.4201 62.5145 39.8194 63.0071 39.8194Z" fill="#C7B484"/>
<path d="M52.3067 29.117C52.7992 29.117 53.1986 28.7177 53.1986 28.2251C53.1986 27.7326 52.7992 27.3333 52.3067 27.3333C51.8141 27.3333 51.4148 27.7326 51.4148 28.2251C51.4148 28.7177 51.8141 29.117 52.3067 29.117Z" fill="#C7B484"/>
<path d="M42.5914 34.3488C42.7442 34.437 42.9197 34.478 43.0957 34.4664C43.2717 34.4549 43.4404 34.3914 43.5803 34.284C43.7203 34.1767 43.8252 34.0302 43.8819 33.8631C43.9386 33.6961 43.9445 33.516 43.8989 33.3456C43.8532 33.1752 43.7581 33.0222 43.6254 32.9059C43.4928 32.7896 43.3287 32.7152 43.1538 32.6922C42.9789 32.6692 42.8011 32.6985 42.6429 32.7765C42.4847 32.8546 42.3532 32.9778 42.265 33.1305C42.1467 33.3354 42.1147 33.5788 42.1759 33.8073C42.2371 34.0357 42.3866 34.2305 42.5914 34.3488Z" fill="#C7B484"/>
<path d="M61.1283 45.0512C61.281 45.1394 61.4565 45.1803 61.6326 45.1688C61.8086 45.1573 61.9772 45.0938 62.1172 44.9864C62.2571 44.879 62.3621 44.7326 62.4188 44.5655C62.4755 44.3985 62.4814 44.2184 62.4357 44.048C62.3901 43.8776 62.2949 43.7246 62.1623 43.6083C62.0297 43.492 61.8656 43.4176 61.6907 43.3946C61.5158 43.3716 61.338 43.4009 61.1798 43.4789C61.0216 43.557 60.8901 43.6801 60.8019 43.8329C60.6836 44.0378 60.6515 44.2812 60.7128 44.5097C60.774 44.7381 60.9234 44.9329 61.1283 45.0512Z" fill="#C7B484"/>
<path d="M57.8876 30.5212C58.3634 30.3937 58.6458 29.9047 58.5183 29.4289C58.3908 28.9531 57.9017 28.6707 57.4259 28.7982C56.9502 28.9257 56.6678 29.4148 56.7953 29.8905C56.9228 30.3663 57.4118 30.6487 57.8876 30.5212Z" fill="#C7B484"/>
<path d="M62.0202 34.3488C62.1729 34.2606 62.2961 34.1291 62.3742 33.9709C62.4522 33.8127 62.4815 33.6349 62.4585 33.46C62.4355 33.2851 62.3611 33.121 62.2448 32.9884C62.1285 32.8558 61.9755 32.7606 61.8051 32.715C61.6347 32.6693 61.4546 32.6752 61.2876 32.7319C61.1205 32.7886 60.974 32.8936 60.8667 33.0335C60.7593 33.1735 60.6958 33.3421 60.6843 33.5181C60.6727 33.6942 60.7137 33.8697 60.8019 34.0224C60.9202 34.2273 61.115 34.3767 61.3434 34.4379C61.5719 34.4992 61.8153 34.4671 62.0202 34.3488Z" fill="#C7B484"/>
<path d="M43.8098 43.8329C43.7216 43.6801 43.5901 43.557 43.4319 43.4789C43.2737 43.4009 43.0959 43.3716 42.921 43.3946C42.7461 43.4176 42.5819 43.492 42.4493 43.6083C42.3167 43.7246 42.2215 43.8776 42.1759 44.048C42.1302 44.2184 42.1361 44.3985 42.1928 44.5655C42.2495 44.7326 42.3545 44.879 42.4945 44.9864C42.6344 45.0938 42.8031 45.1573 42.9791 45.1688C43.1551 45.1803 43.3306 45.1394 43.4834 45.0512C43.6882 44.9329 43.8377 44.7381 43.8989 44.5097C43.9601 44.2812 43.928 44.0378 43.8098 43.8329Z" fill="#C7B484"/>
<path d="M47.4013 30.4316C47.5541 30.3434 47.6772 30.2119 47.7553 30.0537C47.8333 29.8955 47.8626 29.7177 47.8396 29.5428C47.8166 29.3679 47.7422 29.2038 47.6259 29.0712C47.5096 28.9385 47.3566 28.8434 47.1862 28.7977C47.0158 28.7521 46.8357 28.758 46.6687 28.8147C46.5016 28.8714 46.3551 28.9763 46.2478 29.1163C46.1404 29.2562 46.0769 29.4249 46.0654 29.6009C46.0539 29.7769 46.0948 29.9524 46.183 30.1052C46.3013 30.31 46.4961 30.4595 46.7245 30.5207C46.953 30.5819 47.1964 30.5499 47.4013 30.4316Z" fill="#C7B484"/>
<path d="M56.7649 73.711H60.3324C60.5689 73.711 60.7958 73.6171 60.963 73.4498C61.1303 73.2826 61.2243 73.0557 61.2243 72.8192V71.3199C61.527 71.1771 61.8175 71.0098 62.0929 70.8196L63.3897 71.5687C63.5946 71.687 63.838 71.7191 64.0665 71.6578C64.295 71.5966 64.4898 71.4472 64.608 71.2423L66.3918 68.1529C66.5101 67.948 66.5421 67.7046 66.4809 67.4761C66.4197 67.2476 66.2702 67.0528 66.0654 66.9345L64.7704 66.1863C64.7846 66.0177 64.7918 65.8509 64.7918 65.6841C64.7918 65.5174 64.7846 65.3506 64.7704 65.182L66.0654 64.4337C66.2702 64.3154 66.4197 64.1206 66.4809 63.8922C66.5421 63.6637 66.5101 63.4203 66.3918 63.2154L64.608 60.1259C64.4898 59.9211 64.295 59.7716 64.0665 59.7104C63.838 59.6492 63.5946 59.6813 63.3897 59.7995L62.0929 60.5487C61.8175 60.3585 61.527 60.1911 61.2243 60.0484V58.5491C61.2243 58.3126 61.1303 58.0857 60.963 57.9185C60.7958 57.7512 60.5689 57.6572 60.3324 57.6572H56.7649C56.5283 57.6572 56.3015 57.7512 56.1342 57.9185C55.967 58.0857 55.873 58.3126 55.873 58.5491V60.0484C55.5702 60.1911 55.2797 60.3585 55.0043 60.5487L53.7075 59.7995C53.5027 59.6813 53.2592 59.6492 53.0308 59.7104C52.8023 59.7716 52.6075 59.9211 52.4892 60.1259L50.7054 63.2154C50.5872 63.4203 50.5551 63.6637 50.6163 63.8922C50.6776 64.1206 50.827 64.3154 51.0319 64.4337L52.3269 65.182C52.3126 65.3506 52.3055 65.5174 52.3055 65.6841C52.3055 65.8509 52.3126 66.0177 52.3269 66.1863L51.0319 66.9345C50.9296 66.9927 50.8399 67.0705 50.7678 67.1634C50.6958 67.2564 50.6428 67.3627 50.612 67.4762C50.5812 67.5897 50.5731 67.7082 50.5883 67.8248C50.6034 67.9415 50.6415 68.054 50.7003 68.1558C50.7591 68.2577 50.8375 68.3469 50.9309 68.4184C51.0244 68.4898 51.131 68.5421 51.2447 68.5721C51.3584 68.6022 51.477 68.6095 51.5935 68.5935C51.71 68.5776 51.8223 68.5388 51.9238 68.4793L53.7325 67.4322C53.8921 67.3402 54.0192 67.201 54.0965 67.0338C54.1738 66.8666 54.1974 66.6796 54.1642 66.4984C54.0595 65.9606 54.0595 65.4077 54.1642 64.8698C54.1974 64.6887 54.1738 64.5016 54.0965 64.3344C54.0192 64.1672 53.8921 64.0281 53.7325 63.9361L52.6926 63.3349L53.5844 61.7902L54.6244 62.3913C54.7841 62.4836 54.9685 62.524 55.1522 62.5071C55.3359 62.4901 55.5098 62.4167 55.65 62.2968C56.0659 61.9417 56.5436 61.6663 57.0592 61.4843C57.2335 61.4233 57.3846 61.3098 57.4917 61.1593C57.5987 61.0088 57.6564 60.8288 57.6567 60.6441V59.441H59.4405V60.6441C59.4406 60.8284 59.4978 61.0081 59.6041 61.1585C59.7105 61.3089 59.8608 61.4227 60.0345 61.4843C60.5501 61.6663 61.0278 61.9417 61.4437 62.2968C61.5839 62.4167 61.7578 62.4901 61.9415 62.5071C62.1252 62.524 62.3096 62.4836 62.4693 62.3913L63.5093 61.7902L64.4011 63.3349L63.3648 63.9361C63.2052 64.0281 63.078 64.1672 63.0007 64.3344C62.9234 64.5016 62.8998 64.6887 62.9331 64.8698C63.0378 65.4077 63.0378 65.9606 62.9331 66.4984C62.8998 66.6796 62.9234 66.8666 63.0007 67.0338C63.078 67.201 63.2052 67.3402 63.3648 67.4322L64.4047 68.0333L63.5128 69.5781L62.4729 68.9769C62.3131 68.8847 62.1287 68.8443 61.945 68.8612C61.7613 68.8781 61.5874 68.9516 61.4472 69.0715C61.0314 69.4265 60.5537 69.7019 60.0381 69.884C59.8644 69.9455 59.7141 70.0593 59.6077 70.2098C59.5013 70.3602 59.4442 70.5399 59.4441 70.7241V71.9273H57.6567V70.7241C57.6566 70.5399 57.5995 70.3602 57.4931 70.2098C57.3868 70.0593 57.2364 69.9455 57.0628 69.884C56.5471 69.7019 56.0695 69.4265 55.6536 69.0715C55.5134 68.9516 55.3395 68.8781 55.1558 68.8612C54.9721 68.8443 54.7877 68.8847 54.6279 68.9769L52.8156 70.024C52.7134 70.0821 52.6236 70.1599 52.5516 70.2529C52.4795 70.3459 52.4265 70.4521 52.3957 70.5657C52.3649 70.6792 52.3568 70.7977 52.372 70.9143C52.3872 71.0309 52.4253 71.1434 52.4841 71.2453C52.5429 71.3471 52.6213 71.4364 52.7147 71.5078C52.8081 71.5793 52.9148 71.6315 53.0285 71.6616C53.1422 71.6917 53.2607 71.6989 53.3773 71.683C53.4938 71.6671 53.606 71.6282 53.7075 71.5687L55.0043 70.8196C55.2797 71.0098 55.5702 71.1771 55.873 71.3199V72.8192C55.873 73.0557 55.967 73.2826 56.1342 73.4498C56.3015 73.6171 56.5283 73.711 56.7649 73.711Z" fill="#C7B484"/>
<path d="M61.2248 65.6839C61.2248 65.1547 61.0679 64.6374 60.7739 64.1974C60.4799 63.7574 60.062 63.4145 59.5731 63.212C59.0842 63.0095 58.5462 62.9565 58.0272 63.0597C57.5082 63.163 57.0314 63.4178 56.6572 63.792C56.283 64.1662 56.0282 64.6429 55.9249 65.1619C55.8217 65.681 55.8747 66.2189 56.0772 66.7079C56.2797 67.1968 56.6227 67.6146 57.0627 67.9086C57.5027 68.2026 58.02 68.3596 58.5492 68.3596C59.2588 68.3596 59.9394 68.0777 60.4411 67.5759C60.9429 67.0741 61.2248 66.3936 61.2248 65.6839ZM57.6573 65.6839C57.6573 65.5075 57.7096 65.3351 57.8076 65.1884C57.9056 65.0418 58.0449 64.9275 58.2079 64.86C58.3708 64.7924 58.5502 64.7748 58.7232 64.8092C58.8962 64.8436 59.0551 64.9286 59.1798 65.0533C59.3046 65.178 59.3895 65.3369 59.4239 65.5099C59.4583 65.6829 59.4407 65.8623 59.3732 66.0252C59.3057 66.1882 59.1913 66.3275 59.0447 66.4255C58.898 66.5235 58.7256 66.5758 58.5492 66.5758C58.3126 66.5758 58.0858 66.4819 57.9185 66.3146C57.7513 66.1473 57.6573 65.9205 57.6573 65.6839Z" fill="#C7B484"/>
<path d="M59.4402 77.2785H70.1428C71.0889 77.2785 71.9963 76.9027 72.6654 76.2336C73.3344 75.5646 73.7103 74.6572 73.7103 73.711V71.9273C73.7103 71.6907 73.6163 71.4639 73.449 71.2966C73.2818 71.1294 73.0549 71.0354 72.8184 71.0354C72.5819 71.0354 72.355 71.1294 72.1877 71.2966C72.0205 71.4639 71.9265 71.6907 71.9265 71.9273V73.711C71.9265 74.1841 71.7386 74.6378 71.4041 74.9723C71.0695 75.3069 70.6158 75.4948 70.1428 75.4948H59.4402C59.2037 75.4948 58.9768 75.5888 58.8096 75.756C58.6423 75.9233 58.5483 76.1501 58.5483 76.3867C58.5483 76.6232 58.6423 76.8501 58.8096 77.0173C58.9768 77.1846 59.2037 77.2785 59.4402 77.2785Z" fill="#C7B484"/>
<path d="M43.3857 73.711C43.3857 74.2402 43.5427 74.7575 43.8367 75.1975C44.1307 75.6375 44.5485 75.9805 45.0375 76.183C45.5264 76.3855 46.0643 76.4385 46.5834 76.3353C47.1024 76.232 47.5791 75.9772 47.9533 75.603C48.3275 75.2288 48.5824 74.752 48.6856 74.233C48.7888 73.714 48.7359 73.176 48.5333 72.6871C48.3308 72.1982 47.9879 71.7803 47.5479 71.4863C47.1079 71.1923 46.5906 71.0354 46.0614 71.0354C45.3518 71.0354 44.6712 71.3173 44.1694 71.8191C43.6676 72.3209 43.3857 73.0014 43.3857 73.711ZM46.9533 73.711C46.9533 73.8874 46.9009 74.0599 46.8029 74.2065C46.7049 74.3532 46.5657 74.4675 46.4027 74.535C46.2397 74.6025 46.0604 74.6202 45.8874 74.5858C45.7144 74.5514 45.5555 74.4664 45.4307 74.3417C45.306 74.217 45.221 74.058 45.1866 73.885C45.1522 73.712 45.1699 73.5327 45.2374 73.3697C45.3049 73.2068 45.4192 73.0675 45.5659 72.9695C45.7125 72.8715 45.885 72.8192 46.0614 72.8192C46.2979 72.8192 46.5248 72.9131 46.692 73.0804C46.8593 73.2476 46.9533 73.4745 46.9533 73.711Z" fill="#C7B484"/>
</svg>
