<svg width="108" height="108" viewBox="0 0 108 108" fill="none" xmlns="http://www.w3.org/2000/svg">
<circle cx="54" cy="54" r="54" fill="white" fill-opacity="0.07"/>
<path d="M76.2981 40.6682H75.7557C75.435 39.542 74.9871 38.4615 74.4177 37.44L74.8032 37.0544C75.2444 36.6134 75.4872 36.0253 75.4872 35.3983C75.4872 34.7713 75.2444 34.1833 74.8029 33.7419L72.234 31.1759C71.7928 30.7321 71.204 30.4877 70.5758 30.4877C69.9478 30.4877 69.3589 30.7321 68.9199 31.1737L68.5348 31.5589C67.5125 30.9877 66.4316 30.5389 65.3062 30.2184V29.6761C65.3063 28.3843 64.2554 27.3333 62.9635 27.3333H59.3314C58.0396 27.3333 56.9886 28.3843 56.9886 29.6761V30.2184C55.8634 30.5388 54.7819 30.9877 53.7576 31.5593L53.3742 31.1759C52.9328 30.7321 52.344 30.4877 51.716 30.4878C51.0879 30.4878 50.4991 30.7323 50.0601 31.1738L47.4917 33.7424C47.0505 34.1833 46.8078 34.7714 46.8078 35.3984C46.8078 36.0254 47.0505 36.6134 47.4916 37.0544L47.877 37.4399C47.3052 38.4646 46.8571 39.5453 46.5382 40.6682H45.9938C44.702 40.6682 43.651 41.7192 43.651 43.011V46.6462C43.651 47.938 44.702 48.989 45.9938 48.989H46.5382C46.8571 50.1118 47.3052 51.1925 47.877 52.2172L47.4916 52.6028C47.0504 53.0437 46.8077 53.6318 46.8077 54.2588C46.8077 54.8857 47.0504 55.4738 47.4915 55.9147L50.058 58.4812C50.4991 58.9251 51.0878 59.1694 51.7159 59.1694H51.716C52.344 59.1694 52.9329 58.9251 53.372 58.4834L53.7575 58.0978C54.7828 58.67 55.8644 59.1182 56.9885 59.437V59.9812C56.9885 61.273 58.0395 62.324 59.3313 62.324H62.9634C64.2552 62.324 65.3062 61.273 65.3062 59.9812V59.437C66.4307 59.1181 67.5114 58.6701 68.5348 58.0983L68.9177 58.4812C69.3589 58.9251 69.9477 59.1694 70.5757 59.1694C71.2039 59.1694 71.7928 58.925 72.2313 58.4838L74.8032 55.9147C75.2443 55.4737 75.4871 54.8856 75.4871 54.2587C75.4871 53.6317 75.2443 53.0437 74.8032 52.6028L74.4176 52.2171C74.987 51.1956 75.4348 50.1151 75.7556 48.989H76.298C77.5898 48.989 78.6408 47.938 78.6408 46.6462V43.011C78.6409 41.7192 77.59 40.6682 76.2981 40.6682ZM63.216 59.9811C63.216 60.118 63.1004 60.2336 62.9635 60.2336H59.3314C59.1945 60.2336 59.0789 60.118 59.0789 59.9811V58.6242V52.0353C59.0789 51.5982 58.807 51.2073 58.3973 51.0553C55.5888 50.0137 53.7019 47.3108 53.7019 44.3294C53.7019 41.9666 54.8784 39.7518 56.8485 38.4051C56.9369 38.3447 57.0151 38.2954 57.0834 38.2549C57.0797 38.3908 57.07 38.52 57.0649 38.5874C57.0571 38.6935 57.0508 38.7772 57.0508 38.8603V43.793C57.0508 46.0571 58.8199 47.948 61.0782 48.0978C61.1243 48.1008 61.1705 48.1008 61.2166 48.0978C63.4732 47.9481 65.241 46.0572 65.241 43.793V38.8603C65.241 38.7776 65.2348 38.6944 65.2271 38.5889C65.2221 38.5212 65.2125 38.3913 65.2088 38.2548C65.2769 38.2952 65.3547 38.3444 65.4428 38.4047C67.4134 39.7517 68.59 41.9665 68.59 44.3293C68.59 47.3104 66.7041 50.0134 63.8972 51.0553C63.4877 51.2074 63.2158 51.5982 63.2158 52.0352V58.6241V59.9811H63.216ZM76.5506 46.6462C76.5506 46.7807 76.4326 46.8987 76.2981 46.8987H74.9442C74.4559 46.8987 74.0326 47.2368 73.9249 47.7131C73.5939 49.1755 73.0206 50.5585 72.221 51.8234C71.9599 52.2365 72.0199 52.7753 72.3654 53.1209L73.3254 54.0808C73.3877 54.1431 73.397 54.219 73.397 54.2587C73.397 54.2983 73.3877 54.3743 73.3257 54.4362L70.7516 57.0074C70.6928 57.0666 70.6235 57.079 70.5758 57.079C70.5283 57.079 70.4591 57.0666 70.3981 57.0051L69.4381 56.0452C69.092 55.6992 68.5526 55.6397 68.1396 55.9014C67.2475 56.4667 66.2978 56.9153 65.3063 57.2468V52.7304C68.5488 51.2214 70.6804 47.9331 70.6804 44.3292C70.6804 41.2756 69.1634 38.4157 66.6227 36.6789C66.2335 36.413 65.0498 35.6037 64.0146 36.1995C62.9981 36.7848 63.0994 38.1568 63.1425 38.7427C63.1463 38.7936 63.15 38.8363 63.1508 38.8603V43.793C63.1508 44.9371 62.2764 45.8962 61.1475 46.0064C60.0169 45.8961 59.1412 44.937 59.1412 43.793L59.1411 38.8678C59.142 38.8363 59.1458 38.7936 59.1496 38.7425C59.1932 38.1569 59.2953 36.7857 58.2796 36.2001C57.2448 35.6032 56.0594 36.4127 55.6694 36.6789C53.1285 38.4158 51.6116 41.2757 51.6116 44.3293C51.6116 47.9337 53.7444 51.2222 56.9886 52.7308V57.2469C55.9969 56.9154 55.0461 56.4666 54.1514 55.9009C53.9793 55.7922 53.7858 55.7393 53.5932 55.7393C53.3232 55.7393 53.0554 55.8437 52.8538 56.0454L51.8919 57.0074C51.833 57.0667 51.7637 57.0791 51.7161 57.0791C51.6684 57.0791 51.5993 57.0667 51.5383 57.0053L48.9697 54.4367C48.9074 54.3744 48.898 54.2984 48.898 54.2588C48.898 54.2191 48.9074 54.1432 48.9697 54.0808L49.9296 53.1209C50.2751 52.7753 50.3351 52.2365 50.074 51.8234C49.2703 50.5518 48.6972 49.1695 48.3706 47.7148C48.2635 47.2377 47.8398 46.8986 47.3508 46.8986H45.994C45.8595 46.8986 45.7415 46.7806 45.7415 46.6461V43.0109C45.7415 42.8739 45.8571 42.7583 45.994 42.7583H47.3508C47.8398 42.7583 48.2634 42.4192 48.3706 41.9421C48.6972 40.4875 49.2702 39.105 50.074 37.8335C50.3351 37.4205 50.2751 36.8816 49.9296 36.5361L48.9696 35.5761C48.9074 35.5138 48.898 35.4379 48.898 35.3982C48.898 35.3585 48.9074 35.2826 48.9697 35.2202L51.5405 32.6494C51.5993 32.5902 51.6685 32.5778 51.7162 32.5778C51.7638 32.5778 51.833 32.5902 51.8941 32.6516L52.8539 33.6115C53.1997 33.9572 53.7385 34.0171 54.1515 33.756C55.4214 32.9531 56.8053 32.3788 58.2642 32.0493C58.7408 31.9416 59.0791 31.5182 59.0791 31.0298V29.6761C59.0791 29.5391 59.1947 29.4235 59.3316 29.4235H62.9637C63.1006 29.4235 63.2162 29.5391 63.2162 29.6761V31.03C63.2162 31.5185 63.5545 31.9418 64.031 32.0495C65.4913 32.3793 66.8736 32.9533 68.1398 33.7557C68.553 34.0174 69.0922 33.9578 69.4383 33.6119L70.4004 32.6497C70.4592 32.5905 70.5285 32.5781 70.576 32.5781C70.6237 32.5781 70.6929 32.5905 70.7543 32.6523L73.3256 35.2205C73.3879 35.2828 73.3972 35.3587 73.3972 35.3984C73.3972 35.4381 73.3879 35.514 73.3255 35.5764L72.3656 36.5364C72.0201 36.8819 71.9601 37.4208 72.2212 37.8338C73.0207 39.0988 73.5941 40.4816 73.9251 41.9442C74.0329 42.4205 74.4561 42.7586 74.9444 42.7586H76.2983C76.4352 42.7586 76.5508 42.8741 76.5508 43.0111V46.6462H76.5506Z" fill="#C7B484"/>
<path d="M67.2375 73.3531C66.8294 73.7612 66.8294 74.423 67.2375 74.8313C67.4416 75.0353 67.7091 75.1374 67.9765 75.1374C68.244 75.1374 68.5115 75.0353 68.7156 74.8313L68.7185 74.8284C69.1266 74.4202 69.1252 73.7599 68.7169 73.3517C68.3087 72.9436 67.6456 72.9452 67.2375 73.3531Z" fill="#C7B484"/>
<path d="M72.0794 63.2288L63.7819 67.49C63.0785 66.7615 62.0929 66.3071 61.0028 66.3071H55.3176C54.9992 66.3071 54.9215 66.2818 54.9162 66.28C54.8702 66.2558 54.7245 66.1189 54.6075 66.0089L54.5557 65.9602C49.9562 61.6305 46.0709 61.9049 41.6525 63.6486C40.9376 63.9308 40.9238 63.9314 40.2059 63.962L38.9204 63.963C38.5542 62.8581 37.512 62.0586 36.2859 62.0586H32.1057C30.577 62.0586 29.3334 63.3037 29.3334 64.834V75.8048C29.3334 77.3334 30.577 78.5771 32.1057 78.5771H36.2859C37.5118 78.5771 38.554 77.7785 38.9203 76.6751H41.2719C41.4795 76.6751 41.4795 76.6751 41.7211 76.7431C41.8089 76.7679 41.9157 76.798 42.0536 76.8351L52.8703 79.7289C53.3471 79.8576 53.7843 79.9844 54.2073 80.1069C55.5932 80.5084 56.7581 80.846 57.9722 80.846C59.3445 80.846 60.7794 80.4148 62.6666 79.1571C62.6757 79.151 62.6848 79.1447 62.6938 79.1384L64.7588 77.6659C65.2288 77.3307 65.3381 76.6781 65.0029 76.2081C64.6678 75.738 64.015 75.6288 63.5453 75.9639L61.494 77.4266C58.7553 79.2482 57.5923 78.9115 54.789 78.0992C54.3572 77.9741 53.9107 77.8447 53.4131 77.7103L42.5956 74.8164C42.469 74.7823 42.3696 74.7543 42.2881 74.7313C41.8934 74.6201 41.7458 74.585 41.272 74.585H39.0613V66.0541H40.1908C40.2058 66.0541 40.2207 66.0538 40.2357 66.0531L40.2953 66.0506C41.1714 66.0132 41.4165 65.9893 42.4201 65.5931C46.3006 64.0617 49.296 63.8798 53.1243 67.4837L53.1761 67.5323C53.8303 68.1472 54.2071 68.3976 55.3177 68.3976H61.0029C61.6701 68.3976 62.2519 68.768 62.5552 69.3137C62.5585 69.3197 62.5622 69.3255 62.5656 69.3316C62.701 69.5821 62.7781 69.8687 62.7781 70.173C62.7781 71.1503 61.9818 71.9454 61.003 71.9454H51.7893C51.2121 71.9454 50.7441 72.4133 50.7441 72.9905C50.7441 73.5677 51.2121 74.0356 51.7893 74.0356H61.003C63.1344 74.0356 64.8684 72.3029 64.8684 70.173C64.8684 69.8835 64.8354 69.6017 64.7748 69.3303L73.0344 65.0886C73.8161 64.6872 74.8851 64.7303 75.4158 65.5915C75.8853 66.3506 75.6271 67.3596 74.8155 67.9382L71.1923 70.5186C70.7221 70.8535 70.6123 71.5061 70.9472 71.9763C71.1511 72.2626 71.4728 72.4153 71.7994 72.4153C72.0092 72.4153 72.2209 72.3522 72.4048 72.2214L76.0284 69.6406C77.7493 68.4137 78.2502 66.2003 77.1944 64.4935C76.1561 62.8085 73.9573 62.2648 72.0794 63.2288ZM36.9709 75.8048C36.9709 76.1745 36.6572 76.4868 36.2859 76.4868H32.1057C31.736 76.4868 31.4237 76.1744 31.4237 75.8048V64.8341C31.4237 64.4564 31.7297 64.149 32.1057 64.149H36.2859C36.6572 64.149 36.9709 64.4626 36.9709 64.8341V75.8048Z" fill="#C7B484"/>
</svg>
