<svg width="16" height="16" viewBox="0 0 16 16" fill="none" xmlns="http://www.w3.org/2000/svg">
<path d="M7.70634 4.34326C5.63331 4.34326 3.94653 6.03004 3.94653 8.10307C3.94653 10.1761 5.63331 11.8629 7.70634 11.8629C9.77937 11.8629 11.4662 10.1761 11.4662 8.10307C11.4662 6.03004 9.77937 4.34326 7.70634 4.34326Z" fill="#C7B484"/>
<path d="M14.2913 8.10313L15.4131 5.59917L13.0338 4.23285L12.4696 1.54756L9.74136 1.84057L7.70657 0L5.67179 1.84061L2.94353 1.54761L2.37939 4.23285L0 5.59913L1.12179 8.10309L0 10.6071L2.37939 11.9733L2.94353 14.6586L3.1515 14.6363L3.90208 14.5555L4.65223 14.4751L4.85332 14.4537H4.85375L5.67179 14.3656L6.28706 14.922L6.93627 15.5093L7.13866 15.6924L7.43596 15.9613L7.70662 16.2062L7.97728 15.9613L8.27458 15.6924L8.47696 15.5093L8.9818 15.053L8.98223 15.0526L9.7414 14.3656L11.0673 14.5078H11.0677L11.2026 14.5225L11.5111 14.5555H11.5115L12.2617 14.6363L12.4697 14.6587L13.0338 11.9734L15.4132 10.6071L14.2913 8.10313ZM7.70657 13.1519C4.92289 13.1519 2.65779 10.8872 2.65779 8.10309C2.65779 5.3194 4.92289 3.05431 7.70657 3.05431C10.4903 3.05431 12.7554 5.3194 12.7554 8.10309C12.7554 10.8872 10.4903 13.1519 7.70657 13.1519Z" fill="#C7B484"/>
</svg>
